<svg width="16" height="16" viewBox="0 0 16 16" fill="none" xmlns="http://www.w3.org/2000/svg">
<path d="M13.3218 7.99988C15.2475 5.29598 16.2296 2.50145 14.8639 1.13582C13.4983 -0.229803 10.7038 0.752228 7.99988 2.67801C5.29598 0.752228 2.50145 -0.229803 1.13582 1.13582C-0.229803 2.50145 0.752228 5.29598 2.67801 7.99988C0.752228 10.7038 -0.229803 13.4983 1.13582 14.8639C1.57567 15.3038 2.16317 15.4999 2.84754 15.4999C4.29129 15.4999 6.16629 14.6272 8.00379 13.3218C9.83348 14.6272 11.7085 15.4999 13.1561 15.4999C13.8405 15.4999 14.4288 15.303 14.8679 14.8639C16.2296 13.4983 15.2475 10.7038 13.3218 7.99988ZM13.9804 2.01942C14.5772 2.61629 14.1741 4.55067 12.5335 6.96317C12.0145 6.32065 11.4619 5.706 10.878 5.12176C10.2937 4.53871 9.67906 3.9869 9.0366 3.46863C11.4491 1.82801 13.3835 1.42176 13.9804 2.01942ZM11.7725 7.99988C11.2197 8.69923 10.626 9.36524 9.99442 9.99442C9.36524 10.626 8.69923 11.2197 7.99988 11.7725C7.30054 11.2197 6.63453 10.626 6.00535 9.99442C5.37381 9.36524 4.78006 8.69923 4.22723 7.99988C5.33637 6.6022 6.6022 5.33637 7.99988 4.22723C8.69923 4.78006 9.36524 5.37381 9.99442 6.00535C10.626 6.63453 11.2197 7.30054 11.7725 7.99988ZM2.01942 2.01942C2.19129 1.84676 2.47488 1.7577 2.8491 1.7577C3.77254 1.7577 5.24676 2.29676 6.96238 3.46863C6.32054 3.98732 5.70616 4.53911 5.12176 5.12176C4.53871 5.70606 3.9869 6.32071 3.46863 6.96317C1.82801 4.55067 1.42254 2.61629 2.01942 2.01942ZM2.01942 13.9804C1.42254 13.3835 1.82801 11.4491 3.46863 9.0366C3.98766 9.67912 4.54025 10.2938 5.1241 10.878C5.70802 11.4606 6.32187 12.0124 6.96317 12.5311C4.55067 14.1718 2.61629 14.578 2.01942 13.9804ZM13.9804 13.9804C13.3835 14.578 11.4491 14.1741 9.0366 12.5335C9.67876 12.014 10.2934 11.4615 10.878 10.878C11.4611 10.2937 12.0129 9.67906 12.5311 9.0366C14.1718 11.4491 14.5772 13.3835 13.9804 13.9804ZM8.93738 7.99988C8.93738 8.1853 8.8824 8.36656 8.77939 8.52073C8.67637 8.6749 8.52995 8.79506 8.35865 8.86602C8.18734 8.93698 7.99884 8.95554 7.81699 8.91937C7.63513 8.8832 7.46808 8.79391 7.33697 8.6628C7.20586 8.53168 7.11657 8.36464 7.0804 8.18278C7.04422 8.00092 7.06279 7.81242 7.13375 7.64112C7.2047 7.46981 7.32487 7.3234 7.47904 7.22038C7.63321 7.11737 7.81446 7.06238 7.99988 7.06238C8.24852 7.06238 8.48698 7.16116 8.6628 7.33697C8.83861 7.51279 8.93738 7.75124 8.93738 7.99988Z" fill="#4F4DFF"/>
</svg>
