<svg width="44" height="46" viewBox="0 0 44 46" fill="none" xmlns="http://www.w3.org/2000/svg">
<mask id="mask0_2073_12559" style="mask-type:luminance" maskUnits="userSpaceOnUse" x="0" y="0" width="44" height="46">
<path d="M21.0563 0.602849L0.390429 21.9002C-0.130143 22.4366 -0.130143 23.3088 0.390429 23.8453L21.0563 45.1426C21.5769 45.6791 22.4231 45.6791 22.9437 45.1426L43.6096 23.8453C44.1301 23.3088 44.1301 22.4366 43.6096 21.9002L22.9437 0.602849C22.682 0.333111 22.3417 0.198242 21.9985 0.198242C21.6554 0.198242 21.3151 0.333111 21.0534 0.602849" fill="white"/>
</mask>
<g mask="url(#mask0_2073_12559)">
<path d="M22.0019 -0.378329L-0.552979 22.8657L22.0019 46.1098L44.5568 22.8657L22.0019 -0.378329Z" fill="#C2DBFF"/>
<path d="M21.9982 46.1155L-0.555054 22.8701L21.9982 -0.372314V46.1155Z" fill="#9FBEE8"/>
<path d="M-0.555054 22.8701L21.9982 -0.372314L44.5544 22.8701H-0.555054Z" fill="#E6EFFB"/>
<path d="M21.9982 46.1155L-0.555054 22.8701L21.9982 -0.372314V46.1155Z" fill="#96A7CB"/>
<path d="M21.9982 46.1155L-0.555054 22.8701L21.9982 -0.372314V46.1155Z" fill="#D0E4FF"/>
<path d="M21.9982 -0.372314L-0.555054 22.8701H21.9982V-0.372314Z" fill="#BED5FF"/>
</g>
<path d="M12.8544 22.3112L21.9978 23.6899V8.52759L12.8544 21.3911V22.3112Z" fill="#10D2FF"/>
<path d="M31.146 22.3112L21.9996 23.6899V8.52759L31.146 21.3911V22.3112Z" fill="#88F4FF"/>
<path d="M12.9006 23.4326L22.0441 22.054V37.2162L12.9006 24.3527V23.4326Z" fill="#02ACFF"/>
<path d="M31.1923 23.4326L22.0459 22.054V37.2162L31.1923 24.3527V23.4326Z" fill="#007AE7"/>
<path d="M33.9524 22.7421L21.9996 22.0947V29.2008L33.9524 23.1707V22.7421Z" fill="#411DB2"/>
<path d="M10.0482 22.7421L21.9981 22.0947V29.2008L10.0482 23.1707V22.7421Z" fill="#7C4FFB"/>
<path d="M10.0482 22.9497L21.9981 23.6899V15.5588L10.0482 22.4581V22.9497Z" fill="#AF5FFE"/>
<path d="M33.9524 22.9521L21.9996 23.6924V15.5613L33.9524 22.4606V22.9521Z" fill="#C0A0FF"/>
</svg>
