<svg width="45" height="46" viewBox="0 0 45 46" fill="none" xmlns="http://www.w3.org/2000/svg">
<mask id="mask0_2073_12579" style="mask-type:luminance" maskUnits="userSpaceOnUse" x="0" y="0" width="45" height="46">
<path d="M21.0936 0.602849L0.427722 21.9002C-0.0928506 22.4366 -0.0928506 23.3088 0.427722 23.8453L21.0936 45.1426C21.6141 45.6791 22.4604 45.6791 22.981 45.1426L43.6469 23.8453C44.1674 23.3088 44.1674 22.4366 43.6469 21.9002L22.981 0.602849C22.7193 0.333111 22.379 0.198242 22.0358 0.198242C21.6927 0.198242 21.3524 0.333111 21.0907 0.602849" fill="white"/>
</mask>
<g mask="url(#mask0_2073_12579)">
<path d="M22.0392 -0.378329L-0.515686 22.8657L22.0392 46.1098L44.5941 22.8657L22.0392 -0.378329Z" fill="#DDDDDD"/>
<path d="M22.0355 46.1155L-0.517761 22.8701L22.0355 -0.372314V46.1155Z" fill="#9FBEE8"/>
<path d="M-0.517761 22.8701L22.0355 -0.372314L44.5917 22.8701H-0.517761Z" fill="white"/>
<path d="M22.0355 46.1155L-0.517761 22.8701L22.0355 -0.372314V46.1155Z" fill="#96A7CB"/>
<path d="M22.0355 46.1155L-0.517761 22.8701L22.0355 -0.372314V46.1155Z" fill="white"/>
<path d="M22.0355 -0.372314L-0.517761 22.8701H22.0355V-0.372314Z" fill="#DDDDDD"/>
</g>
<path d="M12.8917 22.3112L22.0351 23.6899V8.52759L12.8917 21.3911V22.3112Z" fill="#A7A7A7"/>
<path d="M31.1833 22.3112L22.0369 23.6899V8.52759L31.1833 21.3911V22.3112Z" fill="#C5C5C5"/>
<path d="M12.9379 23.4326L22.0814 22.054V37.2162L12.9379 24.3527V23.4326Z" fill="#A7A7A7"/>
<path d="M31.2296 23.4326L22.0833 22.054V37.2162L31.2296 24.3527V23.4326Z" fill="#414141"/>
<path d="M33.9897 22.7421L22.0369 22.0947V29.2008L33.9897 23.1707V22.7421Z" fill="black"/>
<path d="M10.0855 22.7421L22.0354 22.0947V29.2008L10.0855 23.1707V22.7421Z" fill="#414141"/>
<path d="M10.0855 22.9497L22.0354 23.6899V15.5588L10.0855 22.4581V22.9497Z" fill="#888888"/>
<path d="M33.9897 22.9521L22.0369 23.6924V15.5613L33.9897 22.4606V22.9521Z" fill="#A7A7A7"/>
</svg>
