<svg width="21" height="22" viewBox="0 0 21 22" fill="none" xmlns="http://www.w3.org/2000/svg">
<rect y="0.714355" width="20.5714" height="20.5714" rx="3.33333" fill="#B07F08"/>
<path d="M14.4261 8.85969L11.8011 6.23469C11.7662 6.19987 11.7249 6.17227 11.6793 6.15345C11.6338 6.13463 11.585 6.12496 11.5358 6.125H7.03577C6.83685 6.125 6.64609 6.20402 6.50544 6.34467C6.36478 6.48532 6.28577 6.67609 6.28577 6.875V15.125C6.28577 15.3239 6.36478 15.5147 6.50544 15.6553C6.64609 15.796 6.83685 15.875 7.03577 15.875H13.7858C13.9847 15.875 14.1754 15.796 14.3161 15.6553C14.4567 15.5147 14.5358 15.3239 14.5358 15.125V9.125C14.5358 9.07574 14.5261 9.02695 14.5073 8.98143C14.4885 8.93591 14.4609 8.89454 14.4261 8.85969ZM11.5358 9.125V7.0625L13.5983 9.125H11.5358Z" fill="white"/>
<path d="M8.41238 11.3596C8.35648 11.3037 8.32507 11.2279 8.32507 11.1488C8.32507 11.0698 8.35648 10.994 8.41238 10.9381C8.46829 10.8822 8.54411 10.8508 8.62317 10.8508C8.70223 10.8508 8.77806 10.8822 8.83396 10.9381L10.1128 12.2173V9.06331C10.1128 8.9843 10.1442 8.90852 10.2001 8.85264C10.256 8.79677 10.3318 8.76538 10.4108 8.76538C10.4898 8.76538 10.5656 8.79677 10.6214 8.85264C10.6773 8.90852 10.7087 8.9843 10.7087 9.06331V12.2173L11.9876 10.9381C12.0435 10.8822 12.1193 10.8508 12.1984 10.8508C12.2774 10.8508 12.3533 10.8822 12.4092 10.9381C12.4651 10.994 12.4965 11.0698 12.4965 11.1488C12.4965 11.2279 12.4651 11.3037 12.4092 11.3596L10.6216 13.1472C10.5939 13.1749 10.561 13.1969 10.5249 13.2119C10.4887 13.2269 10.4499 13.2346 10.4108 13.2346C10.3716 13.2346 10.3329 13.2269 10.2967 13.2119C10.2605 13.1969 10.2277 13.1749 10.2 13.1472L8.41238 11.3596Z" fill="#B07F08"/>
</svg>
