<svg width="400" height="112" viewBox="0 0 400 112" fill="none" xmlns="http://www.w3.org/2000/svg">
<path d="M395 0V0.5H396C396.234 0.5 396.463 0.522754 396.684 0.566406L396.779 0.0761719C397.304 0.179865 397.792 0.386446 398.222 0.673828L397.944 1.08887C398.326 1.34454 398.655 1.67377 398.911 2.05566L399.325 1.77734C399.613 2.20671 399.819 2.69463 399.923 3.21973H399.924L399.434 3.31641C399.477 3.53708 399.5 3.76563 399.5 4V5H400V7H399.5V9H400V11H399.5V13H400V15H399.5V17H400V19H399.5V21H400V23H399.5V25H400V27H399.5V29H400V31H399.5V33H400V35H399.5V37H400V39H399.5V41H400V43H399.5V45H400V47H399.5V49H400V51H399.5V53H400V55H399.5V57H400V59H399.5V61H400V63H399.5V65H400V67H399.5V69H400V71H399.5V73H400V75H399.5V77H400V79H399.5V81H400V83H399.5V85H400V87H399.5V89H400V91H399.5V93H400V95H399.5V97H400V99H399.5V101H400V103H399.5V105H400V107H399.5V108C399.5 108.234 399.477 108.463 399.434 108.684L399.923 108.779C399.819 109.304 399.613 109.792 399.325 110.222L398.911 109.944C398.655 110.326 398.326 110.655 397.944 110.911L398.222 111.325C397.792 111.613 397.304 111.819 396.779 111.923L396.684 111.434C396.463 111.477 396.234 111.5 396 111.5H395V112H393V111.5H391V112H389V111.5H387V112H385V111.5H383V112H381V111.5H379V112H377V111.5H375V112H373V111.5H371V112H369V111.5H367V112H365V111.5H363V112H361V111.5H359V112H357V111.5H355V112H353V111.5H351V112H349V111.5H347V112H345V111.5H343V112H341V111.5H339V112H337V111.5H335V112H333V111.5H331V112H329V111.5H327V112H325V111.5H323V112H321V111.5H319V112H317V111.5H315V112H313V111.5H311V112H309V111.5H307V112H305V111.5H303V112H301V111.5H299V112H297V111.5H295V112H293V111.5H291V112H289V111.5H287V112H285V111.5H283V112H281V111.5H279V112H277V111.5H275V112H273V111.5H271V112H269V111.5H267V112H265V111.5H263V112H261V111.5H259V112H257V111.5H255V112H253V111.5H251V112H249V111.5H247V112H245V111.5H243V112H241V111.5H239V112H237V111.5H235V112H233V111.5H231V112H229V111.5H227V112H225V111.5H223V112H221V111.5H219V112H217V111.5H215V112H213V111.5H211V112H209V111.5H207V112H205V111.5H203V112H201V111.5H199V112H197V111.5H195V112H193V111.5H191V112H189V111.5H187V112H185V111.5H183V112H181V111.5H179V112H177V111.5H175V112H173V111.5H171V112H169V111.5H167V112H165V111.5H163V112H161V111.5H159V112H157V111.5H155V112H153V111.5H151V112H149V111.5H147V112H145V111.5H143V112H141V111.5H139V112H137V111.5H135V112H133V111.5H131V112H129V111.5H127V112H125V111.5H123V112H121V111.5H119V112H117V111.5H115V112H113V111.5H111V112H109V111.5H107V112H105V111.5H103V112H101V111.5H99V112H97V111.5H95V112H93V111.5H91V112H89V111.5H87V112H85V111.5H83V112H81V111.5H79V112H77V111.5H75V112H73V111.5H71V112H69V111.5H67V112H65V111.5H63V112H61V111.5H59V112H57V111.5H55V112H53V111.5H51V112H49V111.5H47V112H45V111.5H43V112H41V111.5H39V112H37V111.5H35V112H33V111.5H31V112H29V111.5H27V112H25V111.5H23V112H21V111.5H19V112H17V111.5H15V112H13V111.5H11V112H9V111.5H7V112H5V111.5H4C3.76563 111.5 3.53708 111.477 3.31641 111.434L3.21973 111.923C2.69463 111.819 2.20671 111.613 1.77734 111.325L2.05566 110.911C1.67377 110.655 1.34454 110.326 1.08887 109.944L0.673828 110.222C0.386447 109.792 0.179865 109.304 0.0761719 108.779L0.566406 108.684C0.522754 108.463 0.5 108.234 0.5 108V107H0V105H0.5V103H0V101H0.5V99H0V97H0.5V95H0V93H0.5V91H0V89H0.5V87H0V85H0.5V83H0V81H0.5V79H0V77H0.5V75H0V73H0.5V71H0V69H0.5V67H0V65H0.5V63H0V61H0.5V59H0V57H0.5V55H0V53H0.5V51H0V49H0.5V47H0V45H0.5V43H0V41H0.5V39H0V37H0.5V35H0V33H0.5V31H0V29H0.5V27H0V25H0.5V23H0V21H0.5V19H0V17H0.5V15H0V13H0.5V11H0V9H0.5V7H0V5H0.5V4C0.5 3.76563 0.522754 3.53708 0.566406 3.31641L0.0761719 3.21973C0.17998 2.69474 0.386383 2.20665 0.673828 1.77734L1.08887 2.05566C1.34454 1.67377 1.67377 1.34454 2.05566 1.08887L1.77734 0.673828C2.20665 0.386383 2.69474 0.17998 3.21973 0.0761719L3.31641 0.566406C3.53708 0.522754 3.76563 0.5 4 0.5H5V0H7V0.5H9V0H11V0.5H13V0H15V0.5H17V0H19V0.5H21V0H23V0.5H25V0H27V0.5H29V0H31V0.5H33V0H35V0.5H37V0H39V0.5H41V0H43V0.5H45V0H47V0.5H49V0H51V0.5H53V0H55V0.5H57V0H59V0.5H61V0H63V0.5H65V0H67V0.5H69V0H71V0.5H73V0H75V0.5H77V0H79V0.5H81V0H83V0.5H85V0H87V0.5H89V0H91V0.5H93V0H95V0.5H97V0H99V0.5H101V0H103V0.5H105V0H107V0.5H109V0H111V0.5H113V0H115V0.5H117V0H119V0.5H121V0H123V0.5H125V0H127V0.5H129V0H131V0.5H133V0H135V0.5H137V0H139V0.5H141V0H143V0.5H145V0H147V0.5H149V0H151V0.5H153V0H155V0.5H157V0H159V0.5H161V0H163V0.5H165V0H167V0.5H169V0H171V0.5H173V0H175V0.5H177V0H179V0.5H181V0H183V0.5H185V0H187V0.5H189V0H191V0.5H193V0H195V0.5H197V0H199V0.5H201V0H203V0.5H205V0H207V0.5H209V0H211V0.5H213V0H215V0.5H217V0H219V0.5H221V0H223V0.5H225V0H227V0.5H229V0H231V0.5H233V0H235V0.5H237V0H239V0.5H241V0H243V0.5H245V0H247V0.5H249V0H251V0.5H253V0H255V0.5H257V0H259V0.5H261V0H263V0.5H265V0H267V0.5H269V0H271V0.5H273V0H275V0.5H277V0H279V0.5H281V0H283V0.5H285V0H287V0.5H289V0H291V0.5H293V0H295V0.5H297V0H299V0.5H301V0H303V0.5H305V0H307V0.5H309V0H311V0.5H313V0H315V0.5H317V0H319V0.5H321V0H323V0.5H325V0H327V0.5H329V0H331V0.5H333V0H335V0.5H337V0H339V0.5H341V0H343V0.5H345V0H347V0.5H349V0H351V0.5H353V0H355V0.5H357V0H359V0.5H361V0H363V0.5H365V0H367V0.5H369V0H371V0.5H373V0H375V0.5H377V0H379V0.5H381V0H383V0.5H385V0H387V0.5H389V0H391V0.5H393V0H395Z" fill="#F5F8FF"/>
<path d="M395 0V0.5H396C396.234 0.5 396.463 0.522754 396.684 0.566406L396.779 0.0761719C397.304 0.179865 397.792 0.386446 398.222 0.673828L397.944 1.08887C398.326 1.34454 398.655 1.67377 398.911 2.05566L399.325 1.77734C399.613 2.20671 399.819 2.69463 399.923 3.21973H399.924L399.434 3.31641C399.477 3.53708 399.5 3.76563 399.5 4V5H400V7H399.5V9H400V11H399.5V13H400V15H399.5V17H400V19H399.5V21H400V23H399.5V25H400V27H399.5V29H400V31H399.5V33H400V35H399.5V37H400V39H399.5V41H400V43H399.5V45H400V47H399.5V49H400V51H399.5V53H400V55H399.5V57H400V59H399.5V61H400V63H399.5V65H400V67H399.5V69H400V71H399.5V73H400V75H399.5V77H400V79H399.5V81H400V83H399.5V85H400V87H399.5V89H400V91H399.5V93H400V95H399.5V97H400V99H399.5V101H400V103H399.5V105H400V107H399.5V108C399.5 108.234 399.477 108.463 399.434 108.684L399.923 108.779C399.819 109.304 399.613 109.792 399.325 110.222L398.911 109.944C398.655 110.326 398.326 110.655 397.944 110.911L398.222 111.325C397.792 111.613 397.304 111.819 396.779 111.923L396.684 111.434C396.463 111.477 396.234 111.5 396 111.5H395V112H393V111.5H391V112H389V111.5H387V112H385V111.5H383V112H381V111.5H379V112H377V111.5H375V112H373V111.5H371V112H369V111.5H367V112H365V111.5H363V112H361V111.5H359V112H357V111.5H355V112H353V111.5H351V112H349V111.5H347V112H345V111.5H343V112H341V111.5H339V112H337V111.5H335V112H333V111.5H331V112H329V111.5H327V112H325V111.5H323V112H321V111.5H319V112H317V111.5H315V112H313V111.5H311V112H309V111.5H307V112H305V111.5H303V112H301V111.5H299V112H297V111.5H295V112H293V111.5H291V112H289V111.5H287V112H285V111.5H283V112H281V111.5H279V112H277V111.5H275V112H273V111.5H271V112H269V111.5H267V112H265V111.5H263V112H261V111.5H259V112H257V111.5H255V112H253V111.5H251V112H249V111.5H247V112H245V111.5H243V112H241V111.5H239V112H237V111.5H235V112H233V111.5H231V112H229V111.5H227V112H225V111.5H223V112H221V111.5H219V112H217V111.5H215V112H213V111.5H211V112H209V111.5H207V112H205V111.5H203V112H201V111.5H199V112H197V111.5H195V112H193V111.5H191V112H189V111.5H187V112H185V111.5H183V112H181V111.5H179V112H177V111.5H175V112H173V111.5H171V112H169V111.5H167V112H165V111.5H163V112H161V111.5H159V112H157V111.5H155V112H153V111.5H151V112H149V111.5H147V112H145V111.5H143V112H141V111.5H139V112H137V111.5H135V112H133V111.5H131V112H129V111.5H127V112H125V111.5H123V112H121V111.5H119V112H117V111.5H115V112H113V111.5H111V112H109V111.5H107V112H105V111.5H103V112H101V111.5H99V112H97V111.5H95V112H93V111.5H91V112H89V111.5H87V112H85V111.5H83V112H81V111.5H79V112H77V111.5H75V112H73V111.5H71V112H69V111.5H67V112H65V111.5H63V112H61V111.5H59V112H57V111.5H55V112H53V111.5H51V112H49V111.5H47V112H45V111.5H43V112H41V111.5H39V112H37V111.5H35V112H33V111.5H31V112H29V111.5H27V112H25V111.5H23V112H21V111.5H19V112H17V111.5H15V112H13V111.5H11V112H9V111.5H7V112H5V111.5H4C3.76563 111.5 3.53708 111.477 3.31641 111.434L3.21973 111.923C2.69463 111.819 2.20671 111.613 1.77734 111.325L2.05566 110.911C1.67377 110.655 1.34454 110.326 1.08887 109.944L0.673828 110.222C0.386447 109.792 0.179865 109.304 0.0761719 108.779L0.566406 108.684C0.522754 108.463 0.5 108.234 0.5 108V107H0V105H0.5V103H0V101H0.5V99H0V97H0.5V95H0V93H0.5V91H0V89H0.5V87H0V85H0.5V83H0V81H0.5V79H0V77H0.5V75H0V73H0.5V71H0V69H0.5V67H0V65H0.5V63H0V61H0.5V59H0V57H0.5V55H0V53H0.5V51H0V49H0.5V47H0V45H0.5V43H0V41H0.5V39H0V37H0.5V35H0V33H0.5V31H0V29H0.5V27H0V25H0.5V23H0V21H0.5V19H0V17H0.5V15H0V13H0.5V11H0V9H0.5V7H0V5H0.5V4C0.5 3.76563 0.522754 3.53708 0.566406 3.31641L0.0761719 3.21973C0.17998 2.69474 0.386383 2.20665 0.673828 1.77734L1.08887 2.05566C1.34454 1.67377 1.67377 1.34454 2.05566 1.08887L1.77734 0.673828C2.20665 0.386383 2.69474 0.17998 3.21973 0.0761719L3.31641 0.566406C3.53708 0.522754 3.76563 0.5 4 0.5H5V0H7V0.5H9V0H11V0.5H13V0H15V0.5H17V0H19V0.5H21V0H23V0.5H25V0H27V0.5H29V0H31V0.5H33V0H35V0.5H37V0H39V0.5H41V0H43V0.5H45V0H47V0.5H49V0H51V0.5H53V0H55V0.5H57V0H59V0.5H61V0H63V0.5H65V0H67V0.5H69V0H71V0.5H73V0H75V0.5H77V0H79V0.5H81V0H83V0.5H85V0H87V0.5H89V0H91V0.5H93V0H95V0.5H97V0H99V0.5H101V0H103V0.5H105V0H107V0.5H109V0H111V0.5H113V0H115V0.5H117V0H119V0.5H121V0H123V0.5H125V0H127V0.5H129V0H131V0.5H133V0H135V0.5H137V0H139V0.5H141V0H143V0.5H145V0H147V0.5H149V0H151V0.5H153V0H155V0.5H157V0H159V0.5H161V0H163V0.5H165V0H167V0.5H169V0H171V0.5H173V0H175V0.5H177V0H179V0.5H181V0H183V0.5H185V0H187V0.5H189V0H191V0.5H193V0H195V0.5H197V0H199V0.5H201V0H203V0.5H205V0H207V0.5H209V0H211V0.5H213V0H215V0.5H217V0H219V0.5H221V0H223V0.5H225V0H227V0.5H229V0H231V0.5H233V0H235V0.5H237V0H239V0.5H241V0H243V0.5H245V0H247V0.5H249V0H251V0.5H253V0H255V0.5H257V0H259V0.5H261V0H263V0.5H265V0H267V0.5H269V0H271V0.5H273V0H275V0.5H277V0H279V0.5H281V0H283V0.5H285V0H287V0.5H289V0H291V0.5H293V0H295V0.5H297V0H299V0.5H301V0H303V0.5H305V0H307V0.5H309V0H311V0.5H313V0H315V0.5H317V0H319V0.5H321V0H323V0.5H325V0H327V0.5H329V0H331V0.5H333V0H335V0.5H337V0H339V0.5H341V0H343V0.5H345V0H347V0.5H349V0H351V0.5H353V0H355V0.5H357V0H359V0.5H361V0H363V0.5H365V0H367V0.5H369V0H371V0.5H373V0H375V0.5H377V0H379V0.5H381V0H383V0.5H385V0H387V0.5H389V0H391V0.5H393V0H395Z" stroke="#C3D2FF" stroke-dasharray="2 2"/>
<path d="M37 50H27C26.7348 50 26.4804 50.1054 26.2929 50.2929C26.1054 50.4804 26 50.7348 26 51V61C26 61.2652 26.1054 61.5196 26.2929 61.7071C26.4804 61.8946 26.7348 62 27 62H37C37.2652 62 37.5196 61.8946 37.7071 61.7071C37.8946 61.5196 38 61.2652 38 61V51C38 50.7348 37.8946 50.4804 37.7071 50.2929C37.5196 50.1054 37.2652 50 37 50ZM37 61H27V51H37V61ZM35 56C35 56.1326 34.9473 56.2598 34.8536 56.3536C34.7598 56.4473 34.6326 56.5 34.5 56.5H32.5V58.5C32.5 58.6326 32.4473 58.7598 32.3536 58.8536C32.2598 58.9473 32.1326 59 32 59C31.8674 59 31.7402 58.9473 31.6464 58.8536C31.5527 58.7598 31.5 58.6326 31.5 58.5V56.5H29.5C29.3674 56.5 29.2402 56.4473 29.1464 56.3536C29.0527 56.2598 29 56.1326 29 56C29 55.8674 29.0527 55.7402 29.1464 55.6464C29.2402 55.5527 29.3674 55.5 29.5 55.5H31.5V53.5C31.5 53.3674 31.5527 53.2402 31.6464 53.1464C31.7402 53.0527 31.8674 53 32 53C32.1326 53 32.2598 53.0527 32.3536 53.1464C32.4473 53.2402 32.5 53.3674 32.5 53.5V55.5H34.5C34.6326 55.5 34.7598 55.5527 34.8536 55.6464C34.9473 55.7402 35 55.8674 35 56Z" fill="#4F4DFF"/>
<path d="M53.824 49.562H54.86V53.888H60.054V54.868H54.86V60.86H61.244V61.84H48.784V60.86H53.824V49.562ZM64.338 54.588C63.876 55.204 63.372 55.806 62.826 56.366L62.504 55.288C63.988 53.622 65.08 51.704 65.766 49.548L66.718 49.996C66.354 51.074 65.906 52.096 65.346 53.062V62.428H64.338V54.588ZM66.9 51.354H69.63L70.05 49.548L71.03 49.646C70.89 50.234 70.764 50.808 70.638 51.354H74.866V52.334H70.386C70.232 52.894 70.078 53.44 69.91 53.958H75.44V54.924H69.588C69.364 55.568 69.126 56.156 68.902 56.702H74.656V57.57C74.068 58.55 73.13 59.53 71.842 60.51C72.5 60.86 73.13 61.238 73.746 61.644L73.172 62.512C71.464 61.336 69.7 60.412 67.908 59.74L68.44 58.956C69.308 59.292 70.148 59.656 70.96 60.048C72.066 59.278 72.934 58.48 73.578 57.64H67.586C67.95 56.772 68.3 55.862 68.622 54.924H66.284V53.958H68.93C69.098 53.412 69.252 52.866 69.392 52.334H66.9V51.354ZM83.504 49.59C83.504 50.794 83.462 51.83 83.406 52.698C84.19 56.506 86.22 59.418 89.482 61.42L88.824 62.302C85.968 60.426 84.036 57.906 83.042 54.742C82.202 57.794 80.214 60.314 77.106 62.316L76.49 61.42C80.34 59.054 82.328 55.848 82.454 51.816C82.468 50.864 82.482 50.122 82.482 49.59H83.504ZM94.886 52.894C94.69 53.006 94.522 53.118 94.354 53.23L93.738 52.474C95.11 51.718 96.244 50.71 97.112 49.464L98.148 49.702C97.952 49.982 97.77 50.234 97.574 50.472H101.088V51.13C100.724 51.606 100.36 52.012 99.996 52.362H102.6V55.414H98.414L98.4 55.428C99.002 56.044 99.464 56.688 99.772 57.388C100.724 56.968 101.536 56.45 102.18 55.834L102.838 56.59C102.404 56.968 101.928 57.304 101.396 57.598C101.788 58.858 102.488 59.978 103.496 60.958L102.838 61.784C101.816 60.636 101.088 59.376 100.64 57.99C100.444 58.074 100.262 58.158 100.08 58.242C100.22 58.746 100.304 59.25 100.332 59.782C100.332 60.734 100.178 61.406 99.87 61.784C99.604 62.092 99.114 62.302 98.414 62.386C98.162 62.414 97.882 62.428 97.574 62.428L97.28 61.518C97.686 61.518 98.022 61.504 98.302 61.49C98.61 61.462 98.862 61.35 99.058 61.126C99.226 60.902 99.324 60.454 99.324 59.782C99.324 59.6 99.31 59.432 99.296 59.264C98.092 60.356 96.51 61.266 94.55 61.966L94.046 61.098C96.23 60.398 97.91 59.474 99.114 58.354C99.016 58.046 98.904 57.752 98.778 57.486C97.742 58.41 96.342 59.18 94.578 59.768L94.088 58.942C95.936 58.382 97.364 57.668 98.372 56.8C98.204 56.548 98.008 56.31 97.812 56.086C96.972 56.856 95.852 57.402 94.48 57.71L94.102 56.87C95.432 56.59 96.454 56.1 97.182 55.414H94.886V52.894ZM98.722 52.362C99.128 52.026 99.52 51.648 99.912 51.256H96.874C96.468 51.662 96.048 52.026 95.628 52.362H98.722ZM101.62 54.588V53.188H99.394C99.282 53.692 99.114 54.168 98.918 54.588H101.62ZM97.854 54.588C98.106 54.154 98.302 53.692 98.414 53.188H95.866V54.588H97.854ZM92.17 54.504C91.764 55.12 91.316 55.722 90.84 56.296L90.518 55.232C91.806 53.566 92.73 51.648 93.318 49.492L94.256 49.94C93.976 50.906 93.612 51.83 93.192 52.698V62.386H92.17V54.504ZM104.77 50.122H117.23V51.102H111.616C111.504 51.718 111.322 52.32 111.098 52.894H116.474V62.442H115.508V61.742H106.534V62.442H105.568V52.894H110.076C110.3 52.306 110.482 51.718 110.594 51.102H104.77V50.122ZM106.534 60.818H108.466V53.804H106.534V60.818ZM109.404 60.818H112.596V59.026H109.404V60.818ZM113.534 60.818H115.508V53.804H113.534V60.818ZM109.404 58.144H112.596V56.436H109.404V58.144ZM109.404 55.54H112.596V53.804H109.404V55.54Z" fill="#4F4DFF"/>
<path d="M275.113 27.7832C275.113 27.0867 275.678 26.5221 276.374 26.5221H374.739C375.435 26.5221 376 27.0867 376 27.7832V84.2167C376 84.9132 375.435 85.4778 374.739 85.4778H276.374C275.678 85.4778 275.113 84.9132 275.113 84.2167V27.7832Z" fill="#DEE7FF" fill-opacity="0.6"/>
<rect x="285.832" y="41.3395" width="6.62069" height="3.46798" rx="0.945813" fill="#9FB4FF"/>
<rect x="285.832" y="48.5905" width="6.62069" height="3.46798" rx="0.945813" fill="#9FB4FF"/>
<rect x="285.832" y="55.527" width="6.62069" height="3.46798" rx="0.945813" fill="#9FB4FF"/>
<rect x="285.832" y="69.7135" width="14.5025" height="3.46798" rx="0.945813" fill="#9FB4FF"/>
<rect x="347.626" y="69.7145" width="14.5025" height="3.46798" rx="0.945813" fill="#9FB4FF"/>
<rect x="296.236" y="41.3395" width="11.665" height="3.46798" rx="0.945813" fill="#9FB4FF"/>
<rect x="296.236" y="48.5905" width="11.665" height="3.46798" rx="0.945813" fill="#9FB4FF"/>
<rect x="309.162" y="48.5905" width="11.665" height="3.46798" rx="0.945813" fill="#9FB4FF"/>
<rect x="296.236" y="55.527" width="29.3202" height="3.46798" rx="0.945813" fill="#9FB4FF"/>
<path d="M362.437 55.6654C361.185 55.108 359.435 53.8285 356.992 53.0574C356.278 52.8319 355.937 51.8763 356.298 51.2199C356.714 50.4638 357.092 49.5708 357.477 48.5894C357.863 47.6045 357.797 46.7649 357.797 45.5695C357.797 44.6865 357.963 43.2694 357.744 42.4906C357.006 39.8586 355.141 39.1324 352.956 39.1324C350.768 39.1324 348.901 39.862 348.164 42.4985C347.947 43.2749 348.114 44.6888 348.114 45.5696C348.114 46.7676 348.049 47.6101 348.436 48.5965C348.824 49.5841 349.201 50.4796 349.615 51.2359C349.974 51.8914 349.635 52.8446 348.924 53.0721C346.502 53.8461 344.765 55.1157 343.522 55.671C340.39 57.0696 340.374 58.6006 340.374 58.6006V60.2555C340.374 60.7779 340.798 61.2014 341.32 61.2013L364.65 61.1985C365.173 61.1985 365.596 60.775 365.596 60.2527V58.6006C365.596 58.6006 365.581 57.0643 362.437 55.6654Z" fill="#9FB4FF"/>
<path d="M378.522 29.044V25.2607C378.522 24.5643 377.958 23.9997 377.261 23.9997H373.478" stroke="#4F4DFF" stroke-width="1.33333" stroke-linecap="round" stroke-linejoin="round"/>
<path d="M378.522 82.9553V86.7386C378.522 87.435 377.958 87.9996 377.261 87.9996H373.478" stroke="#4F4DFF" stroke-width="1.33333" stroke-linecap="round" stroke-linejoin="round"/>
<path d="M272.591 29.0443V25.2611C272.591 24.5646 273.156 24 273.852 24H277.635" stroke="#4F4DFF" stroke-width="1.33333" stroke-linecap="round" stroke-linejoin="round"/>
<path d="M272.591 82.9557V86.7389C272.591 87.4354 273.156 88 273.852 88H277.635" stroke="#4F4DFF" stroke-width="1.33333" stroke-linecap="round" stroke-linejoin="round"/>
</svg>
