<svg width="400" height="112" viewBox="0 0 400 112" fill="none" xmlns="http://www.w3.org/2000/svg">
<path d="M395 0V0.5H396C396.234 0.5 396.463 0.522754 396.684 0.566406L396.779 0.0761719C397.304 0.179865 397.792 0.386446 398.222 0.673828L397.944 1.08887C398.326 1.34454 398.655 1.67377 398.911 2.05566L399.325 1.77734C399.613 2.20671 399.819 2.69463 399.923 3.21973H399.924L399.434 3.31641C399.477 3.53708 399.5 3.76563 399.5 4V5H400V7H399.5V9H400V11H399.5V13H400V15H399.5V17H400V19H399.5V21H400V23H399.5V25H400V27H399.5V29H400V31H399.5V33H400V35H399.5V37H400V39H399.5V41H400V43H399.5V45H400V47H399.5V49H400V51H399.5V53H400V55H399.5V57H400V59H399.5V61H400V63H399.5V65H400V67H399.5V69H400V71H399.5V73H400V75H399.5V77H400V79H399.5V81H400V83H399.5V85H400V87H399.5V89H400V91H399.5V93H400V95H399.5V97H400V99H399.5V101H400V103H399.5V105H400V107H399.5V108C399.5 108.234 399.477 108.463 399.434 108.684L399.923 108.779C399.819 109.304 399.613 109.792 399.325 110.222L398.911 109.944C398.655 110.326 398.326 110.655 397.944 110.911L398.222 111.325C397.792 111.613 397.304 111.819 396.779 111.923L396.684 111.434C396.463 111.477 396.234 111.5 396 111.5H395V112H393V111.5H391V112H389V111.5H387V112H385V111.5H383V112H381V111.5H379V112H377V111.5H375V112H373V111.5H371V112H369V111.5H367V112H365V111.5H363V112H361V111.5H359V112H357V111.5H355V112H353V111.5H351V112H349V111.5H347V112H345V111.5H343V112H341V111.5H339V112H337V111.5H335V112H333V111.5H331V112H329V111.5H327V112H325V111.5H323V112H321V111.5H319V112H317V111.5H315V112H313V111.5H311V112H309V111.5H307V112H305V111.5H303V112H301V111.5H299V112H297V111.5H295V112H293V111.5H291V112H289V111.5H287V112H285V111.5H283V112H281V111.5H279V112H277V111.5H275V112H273V111.5H271V112H269V111.5H267V112H265V111.5H263V112H261V111.5H259V112H257V111.5H255V112H253V111.5H251V112H249V111.5H247V112H245V111.5H243V112H241V111.5H239V112H237V111.5H235V112H233V111.5H231V112H229V111.5H227V112H225V111.5H223V112H221V111.5H219V112H217V111.5H215V112H213V111.5H211V112H209V111.5H207V112H205V111.5H203V112H201V111.5H199V112H197V111.5H195V112H193V111.5H191V112H189V111.5H187V112H185V111.5H183V112H181V111.5H179V112H177V111.5H175V112H173V111.5H171V112H169V111.5H167V112H165V111.5H163V112H161V111.5H159V112H157V111.5H155V112H153V111.5H151V112H149V111.5H147V112H145V111.5H143V112H141V111.5H139V112H137V111.5H135V112H133V111.5H131V112H129V111.5H127V112H125V111.5H123V112H121V111.5H119V112H117V111.5H115V112H113V111.5H111V112H109V111.5H107V112H105V111.5H103V112H101V111.5H99V112H97V111.5H95V112H93V111.5H91V112H89V111.5H87V112H85V111.5H83V112H81V111.5H79V112H77V111.5H75V112H73V111.5H71V112H69V111.5H67V112H65V111.5H63V112H61V111.5H59V112H57V111.5H55V112H53V111.5H51V112H49V111.5H47V112H45V111.5H43V112H41V111.5H39V112H37V111.5H35V112H33V111.5H31V112H29V111.5H27V112H25V111.5H23V112H21V111.5H19V112H17V111.5H15V112H13V111.5H11V112H9V111.5H7V112H5V111.5H4C3.76563 111.5 3.53708 111.477 3.31641 111.434L3.21973 111.923C2.69463 111.819 2.20671 111.613 1.77734 111.325L2.05566 110.911C1.67377 110.655 1.34454 110.326 1.08887 109.944L0.673828 110.222C0.386447 109.792 0.179865 109.304 0.0761719 108.779L0.566406 108.684C0.522754 108.463 0.5 108.234 0.5 108V107H0V105H0.5V103H0V101H0.5V99H0V97H0.5V95H0V93H0.5V91H0V89H0.5V87H0V85H0.5V83H0V81H0.5V79H0V77H0.5V75H0V73H0.5V71H0V69H0.5V67H0V65H0.5V63H0V61H0.5V59H0V57H0.5V55H0V53H0.5V51H0V49H0.5V47H0V45H0.5V43H0V41H0.5V39H0V37H0.5V35H0V33H0.5V31H0V29H0.5V27H0V25H0.5V23H0V21H0.5V19H0V17H0.5V15H0V13H0.5V11H0V9H0.5V7H0V5H0.5V4C0.5 3.76563 0.522754 3.53708 0.566406 3.31641L0.0761719 3.21973C0.17998 2.69474 0.386383 2.20665 0.673828 1.77734L1.08887 2.05566C1.34454 1.67377 1.67377 1.34454 2.05566 1.08887L1.77734 0.673828C2.20665 0.386383 2.69474 0.17998 3.21973 0.0761719L3.31641 0.566406C3.53708 0.522754 3.76563 0.5 4 0.5H5V0H7V0.5H9V0H11V0.5H13V0H15V0.5H17V0H19V0.5H21V0H23V0.5H25V0H27V0.5H29V0H31V0.5H33V0H35V0.5H37V0H39V0.5H41V0H43V0.5H45V0H47V0.5H49V0H51V0.5H53V0H55V0.5H57V0H59V0.5H61V0H63V0.5H65V0H67V0.5H69V0H71V0.5H73V0H75V0.5H77V0H79V0.5H81V0H83V0.5H85V0H87V0.5H89V0H91V0.5H93V0H95V0.5H97V0H99V0.5H101V0H103V0.5H105V0H107V0.5H109V0H111V0.5H113V0H115V0.5H117V0H119V0.5H121V0H123V0.5H125V0H127V0.5H129V0H131V0.5H133V0H135V0.5H137V0H139V0.5H141V0H143V0.5H145V0H147V0.5H149V0H151V0.5H153V0H155V0.5H157V0H159V0.5H161V0H163V0.5H165V0H167V0.5H169V0H171V0.5H173V0H175V0.5H177V0H179V0.5H181V0H183V0.5H185V0H187V0.5H189V0H191V0.5H193V0H195V0.5H197V0H199V0.5H201V0H203V0.5H205V0H207V0.5H209V0H211V0.5H213V0H215V0.5H217V0H219V0.5H221V0H223V0.5H225V0H227V0.5H229V0H231V0.5H233V0H235V0.5H237V0H239V0.5H241V0H243V0.5H245V0H247V0.5H249V0H251V0.5H253V0H255V0.5H257V0H259V0.5H261V0H263V0.5H265V0H267V0.5H269V0H271V0.5H273V0H275V0.5H277V0H279V0.5H281V0H283V0.5H285V0H287V0.5H289V0H291V0.5H293V0H295V0.5H297V0H299V0.5H301V0H303V0.5H305V0H307V0.5H309V0H311V0.5H313V0H315V0.5H317V0H319V0.5H321V0H323V0.5H325V0H327V0.5H329V0H331V0.5H333V0H335V0.5H337V0H339V0.5H341V0H343V0.5H345V0H347V0.5H349V0H351V0.5H353V0H355V0.5H357V0H359V0.5H361V0H363V0.5H365V0H367V0.5H369V0H371V0.5H373V0H375V0.5H377V0H379V0.5H381V0H383V0.5H385V0H387V0.5H389V0H391V0.5H393V0H395Z" fill="#F5F8FF"/>
<path d="M395 0V0.5H396C396.234 0.5 396.463 0.522754 396.684 0.566406L396.779 0.0761719C397.304 0.179865 397.792 0.386446 398.222 0.673828L397.944 1.08887C398.326 1.34454 398.655 1.67377 398.911 2.05566L399.325 1.77734C399.613 2.20671 399.819 2.69463 399.923 3.21973H399.924L399.434 3.31641C399.477 3.53708 399.5 3.76563 399.5 4V5H400V7H399.5V9H400V11H399.5V13H400V15H399.5V17H400V19H399.5V21H400V23H399.5V25H400V27H399.5V29H400V31H399.5V33H400V35H399.5V37H400V39H399.5V41H400V43H399.5V45H400V47H399.5V49H400V51H399.5V53H400V55H399.5V57H400V59H399.5V61H400V63H399.5V65H400V67H399.5V69H400V71H399.5V73H400V75H399.5V77H400V79H399.5V81H400V83H399.5V85H400V87H399.5V89H400V91H399.5V93H400V95H399.5V97H400V99H399.5V101H400V103H399.5V105H400V107H399.5V108C399.5 108.234 399.477 108.463 399.434 108.684L399.923 108.779C399.819 109.304 399.613 109.792 399.325 110.222L398.911 109.944C398.655 110.326 398.326 110.655 397.944 110.911L398.222 111.325C397.792 111.613 397.304 111.819 396.779 111.923L396.684 111.434C396.463 111.477 396.234 111.5 396 111.5H395V112H393V111.5H391V112H389V111.5H387V112H385V111.5H383V112H381V111.5H379V112H377V111.5H375V112H373V111.5H371V112H369V111.5H367V112H365V111.5H363V112H361V111.5H359V112H357V111.5H355V112H353V111.5H351V112H349V111.5H347V112H345V111.5H343V112H341V111.5H339V112H337V111.5H335V112H333V111.5H331V112H329V111.5H327V112H325V111.5H323V112H321V111.5H319V112H317V111.5H315V112H313V111.5H311V112H309V111.5H307V112H305V111.5H303V112H301V111.5H299V112H297V111.5H295V112H293V111.5H291V112H289V111.5H287V112H285V111.5H283V112H281V111.5H279V112H277V111.5H275V112H273V111.5H271V112H269V111.5H267V112H265V111.5H263V112H261V111.5H259V112H257V111.5H255V112H253V111.5H251V112H249V111.5H247V112H245V111.5H243V112H241V111.5H239V112H237V111.5H235V112H233V111.5H231V112H229V111.5H227V112H225V111.5H223V112H221V111.5H219V112H217V111.5H215V112H213V111.5H211V112H209V111.5H207V112H205V111.5H203V112H201V111.5H199V112H197V111.5H195V112H193V111.5H191V112H189V111.5H187V112H185V111.5H183V112H181V111.5H179V112H177V111.5H175V112H173V111.5H171V112H169V111.5H167V112H165V111.5H163V112H161V111.5H159V112H157V111.5H155V112H153V111.5H151V112H149V111.5H147V112H145V111.5H143V112H141V111.5H139V112H137V111.5H135V112H133V111.5H131V112H129V111.5H127V112H125V111.5H123V112H121V111.5H119V112H117V111.5H115V112H113V111.5H111V112H109V111.5H107V112H105V111.5H103V112H101V111.5H99V112H97V111.5H95V112H93V111.5H91V112H89V111.5H87V112H85V111.5H83V112H81V111.5H79V112H77V111.5H75V112H73V111.5H71V112H69V111.5H67V112H65V111.5H63V112H61V111.5H59V112H57V111.5H55V112H53V111.5H51V112H49V111.5H47V112H45V111.5H43V112H41V111.5H39V112H37V111.5H35V112H33V111.5H31V112H29V111.5H27V112H25V111.5H23V112H21V111.5H19V112H17V111.5H15V112H13V111.5H11V112H9V111.5H7V112H5V111.5H4C3.76563 111.5 3.53708 111.477 3.31641 111.434L3.21973 111.923C2.69463 111.819 2.20671 111.613 1.77734 111.325L2.05566 110.911C1.67377 110.655 1.34454 110.326 1.08887 109.944L0.673828 110.222C0.386447 109.792 0.179865 109.304 0.0761719 108.779L0.566406 108.684C0.522754 108.463 0.5 108.234 0.5 108V107H0V105H0.5V103H0V101H0.5V99H0V97H0.5V95H0V93H0.5V91H0V89H0.5V87H0V85H0.5V83H0V81H0.5V79H0V77H0.5V75H0V73H0.5V71H0V69H0.5V67H0V65H0.5V63H0V61H0.5V59H0V57H0.5V55H0V53H0.5V51H0V49H0.5V47H0V45H0.5V43H0V41H0.5V39H0V37H0.5V35H0V33H0.5V31H0V29H0.5V27H0V25H0.5V23H0V21H0.5V19H0V17H0.5V15H0V13H0.5V11H0V9H0.5V7H0V5H0.5V4C0.5 3.76563 0.522754 3.53708 0.566406 3.31641L0.0761719 3.21973C0.17998 2.69474 0.386383 2.20665 0.673828 1.77734L1.08887 2.05566C1.34454 1.67377 1.67377 1.34454 2.05566 1.08887L1.77734 0.673828C2.20665 0.386383 2.69474 0.17998 3.21973 0.0761719L3.31641 0.566406C3.53708 0.522754 3.76563 0.5 4 0.5H5V0H7V0.5H9V0H11V0.5H13V0H15V0.5H17V0H19V0.5H21V0H23V0.5H25V0H27V0.5H29V0H31V0.5H33V0H35V0.5H37V0H39V0.5H41V0H43V0.5H45V0H47V0.5H49V0H51V0.5H53V0H55V0.5H57V0H59V0.5H61V0H63V0.5H65V0H67V0.5H69V0H71V0.5H73V0H75V0.5H77V0H79V0.5H81V0H83V0.5H85V0H87V0.5H89V0H91V0.5H93V0H95V0.5H97V0H99V0.5H101V0H103V0.5H105V0H107V0.5H109V0H111V0.5H113V0H115V0.5H117V0H119V0.5H121V0H123V0.5H125V0H127V0.5H129V0H131V0.5H133V0H135V0.5H137V0H139V0.5H141V0H143V0.5H145V0H147V0.5H149V0H151V0.5H153V0H155V0.5H157V0H159V0.5H161V0H163V0.5H165V0H167V0.5H169V0H171V0.5H173V0H175V0.5H177V0H179V0.5H181V0H183V0.5H185V0H187V0.5H189V0H191V0.5H193V0H195V0.5H197V0H199V0.5H201V0H203V0.5H205V0H207V0.5H209V0H211V0.5H213V0H215V0.5H217V0H219V0.5H221V0H223V0.5H225V0H227V0.5H229V0H231V0.5H233V0H235V0.5H237V0H239V0.5H241V0H243V0.5H245V0H247V0.5H249V0H251V0.5H253V0H255V0.5H257V0H259V0.5H261V0H263V0.5H265V0H267V0.5H269V0H271V0.5H273V0H275V0.5H277V0H279V0.5H281V0H283V0.5H285V0H287V0.5H289V0H291V0.5H293V0H295V0.5H297V0H299V0.5H301V0H303V0.5H305V0H307V0.5H309V0H311V0.5H313V0H315V0.5H317V0H319V0.5H321V0H323V0.5H325V0H327V0.5H329V0H331V0.5H333V0H335V0.5H337V0H339V0.5H341V0H343V0.5H345V0H347V0.5H349V0H351V0.5H353V0H355V0.5H357V0H359V0.5H361V0H363V0.5H365V0H367V0.5H369V0H371V0.5H373V0H375V0.5H377V0H379V0.5H381V0H383V0.5H385V0H387V0.5H389V0H391V0.5H393V0H395Z" stroke="#C3D2FF" stroke-dasharray="2 2"/>
<path d="M37 50H27C26.7348 50 26.4804 50.1054 26.2929 50.2929C26.1054 50.4804 26 50.7348 26 51V61C26 61.2652 26.1054 61.5196 26.2929 61.7071C26.4804 61.8946 26.7348 62 27 62H37C37.2652 62 37.5196 61.8946 37.7071 61.7071C37.8946 61.5196 38 61.2652 38 61V51C38 50.7348 37.8946 50.4804 37.7071 50.2929C37.5196 50.1054 37.2652 50 37 50ZM37 61H27V51H37V61ZM35 56C35 56.1326 34.9473 56.2598 34.8536 56.3536C34.7598 56.4473 34.6326 56.5 34.5 56.5H32.5V58.5C32.5 58.6326 32.4473 58.7598 32.3536 58.8536C32.2598 58.9473 32.1326 59 32 59C31.8674 59 31.7402 58.9473 31.6464 58.8536C31.5527 58.7598 31.5 58.6326 31.5 58.5V56.5H29.5C29.3674 56.5 29.2402 56.4473 29.1464 56.3536C29.0527 56.2598 29 56.1326 29 56C29 55.8674 29.0527 55.7402 29.1464 55.6464C29.2402 55.5527 29.3674 55.5 29.5 55.5H31.5V53.5C31.5 53.3674 31.5527 53.2402 31.6464 53.1464C31.7402 53.0527 31.8674 53 32 53C32.1326 53 32.2598 53.0527 32.3536 53.1464C32.4473 53.2402 32.5 53.3674 32.5 53.5V55.5H34.5C34.6326 55.5 34.7598 55.5527 34.8536 55.6464C34.9473 55.7402 35 55.8674 35 56Z" fill="#4F4DFF"/>
<path d="M53.824 49.562H54.86V53.888H60.054V54.868H54.86V60.86H61.244V61.84H48.784V60.86H53.824V49.562ZM64.338 54.588C63.876 55.204 63.372 55.806 62.826 56.366L62.504 55.288C63.988 53.622 65.08 51.704 65.766 49.548L66.718 49.996C66.354 51.074 65.906 52.096 65.346 53.062V62.428H64.338V54.588ZM66.9 51.354H69.63L70.05 49.548L71.03 49.646C70.89 50.234 70.764 50.808 70.638 51.354H74.866V52.334H70.386C70.232 52.894 70.078 53.44 69.91 53.958H75.44V54.924H69.588C69.364 55.568 69.126 56.156 68.902 56.702H74.656V57.57C74.068 58.55 73.13 59.53 71.842 60.51C72.5 60.86 73.13 61.238 73.746 61.644L73.172 62.512C71.464 61.336 69.7 60.412 67.908 59.74L68.44 58.956C69.308 59.292 70.148 59.656 70.96 60.048C72.066 59.278 72.934 58.48 73.578 57.64H67.586C67.95 56.772 68.3 55.862 68.622 54.924H66.284V53.958H68.93C69.098 53.412 69.252 52.866 69.392 52.334H66.9V51.354ZM79.528 52.432H86.458V53.342H83.518V55.358H86.024V56.254H83.518V58.48H86.864V59.404H79.15V58.48H82.482V56.254H79.976V55.358H82.482V53.342H79.528V52.432ZM88.754 50.206V62.372H87.732V61.77H78.268V62.372H77.246V50.206H88.754ZM78.268 60.818H87.732V51.158H78.268V60.818ZM85.17 56.548C85.52 57.024 85.828 57.542 86.08 58.088L85.296 58.452C85.016 57.822 84.708 57.276 84.372 56.814L85.17 56.548ZM93.178 49.52L94.032 49.912C93.36 51.424 92.296 52.768 90.812 53.944L90.518 52.992C91.736 51.984 92.618 50.822 93.178 49.52ZM93.57 52.698L94.396 53.076C94.088 53.846 93.71 54.574 93.248 55.246V62.386H92.296V56.464C91.876 56.94 91.414 57.388 90.91 57.822L90.616 56.898C91.974 55.666 92.954 54.266 93.57 52.698ZM96.314 49.562H97.126V52.026H98.092V50.08H98.89V52.838H94.564V50.08H95.362V52.026H96.314V49.562ZM94.354 53.79H98.778V54.602C99.408 53.286 99.842 51.606 100.094 49.576L101.018 49.744C100.906 50.472 100.78 51.158 100.626 51.788H103.23V52.698H102.684C102.628 55.078 102.292 57.094 101.69 58.774C102.166 59.838 102.782 60.776 103.51 61.588L102.88 62.316C102.222 61.574 101.676 60.748 101.242 59.852C100.766 60.818 100.178 61.644 99.478 62.33L98.974 61.546L98.652 61.7C98.386 61.042 98.106 60.454 97.812 59.936L98.484 59.614C98.764 60.09 99.044 60.622 99.296 61.182C99.898 60.51 100.388 59.712 100.766 58.788C100.262 57.472 99.926 56.002 99.758 54.406C99.52 54.938 99.254 55.414 98.96 55.834L98.456 55.19C98.554 55.022 98.652 54.84 98.75 54.658H94.354V53.79ZM100.374 52.754C100.458 54.532 100.724 56.128 101.2 57.528C101.592 56.142 101.802 54.532 101.844 52.698H100.388C100.374 52.726 100.374 52.74 100.374 52.754ZM94.844 59.74L95.53 60.076C95.208 60.79 94.83 61.406 94.396 61.938L93.738 61.462C94.158 60.986 94.536 60.412 94.844 59.74ZM98.372 57.178C98.736 57.766 99.058 58.396 99.338 59.068L98.638 59.376C98.554 59.152 98.456 58.942 98.358 58.746L97.252 58.956V61.392C97.252 61.98 96.944 62.288 96.356 62.288H95.46L95.278 61.462C95.544 61.49 95.81 61.518 96.062 61.518C96.258 61.518 96.37 61.392 96.37 61.168V59.096C95.698 59.18 95.04 59.25 94.396 59.306L94.214 58.62C94.998 58.144 95.712 57.626 96.37 57.066C95.712 57.15 95.068 57.206 94.424 57.234L94.242 56.59C94.998 56.044 95.656 55.414 96.216 54.7L96.986 55.008C96.51 55.582 95.978 56.086 95.39 56.534C95.95 56.492 96.524 56.45 97.098 56.394C97.322 56.17 97.532 55.946 97.728 55.722L98.512 56.016C97.672 56.94 96.692 57.78 95.572 58.508C96.398 58.424 97.238 58.312 98.078 58.172C97.938 57.892 97.798 57.64 97.658 57.416L98.372 57.178ZM104.77 50.122H117.23V51.102H111.616C111.504 51.718 111.322 52.32 111.098 52.894H116.474V62.442H115.508V61.742H106.534V62.442H105.568V52.894H110.076C110.3 52.306 110.482 51.718 110.594 51.102H104.77V50.122ZM106.534 60.818H108.466V53.804H106.534V60.818ZM109.404 60.818H112.596V59.026H109.404V60.818ZM113.534 60.818H115.508V53.804H113.534V60.818ZM109.404 58.144H112.596V56.436H109.404V58.144ZM109.404 55.54H112.596V53.804H109.404V55.54Z" fill="#4F4DFF"/>
<path d="M275.113 27.7832C275.113 27.0868 275.678 26.5222 276.374 26.5222H374.739C375.435 26.5222 376 27.0868 376 27.7832V84.2167C376 84.9132 375.435 85.4778 374.739 85.4778H276.374C275.678 85.4778 275.113 84.9132 275.113 84.2167V27.7832Z" fill="#DEE7FF" fill-opacity="0.6"/>
<rect x="286" y="69.9997" width="20" height="3" rx="0.945813" fill="#9FB4FF"/>
<rect x="327" y="69.9997" width="35" height="3" rx="0.945813" fill="#9FB4FF"/>
<rect width="14" height="3" rx="0.945813" transform="matrix(-1 0 0 1 362 55.9997)" fill="#9FB4FF"/>
<rect width="26" height="3" rx="0.945813" transform="matrix(-1 0 0 1 362 48.9997)" fill="#9FB4FF"/>
<rect width="41" height="4" rx="0.945813" transform="matrix(-1 0 0 1 362 40.9997)" fill="#9FB4FF"/>
<path d="M378.522 29.044V25.2608C378.522 24.5643 377.957 23.9997 377.261 23.9997H373.477" stroke="#4F4DFF" stroke-width="1.33333" stroke-linecap="round" stroke-linejoin="round"/>
<path d="M378.522 82.9554V86.7386C378.522 87.4351 377.957 87.9997 377.261 87.9997H373.477" stroke="#4F4DFF" stroke-width="1.33333" stroke-linecap="round" stroke-linejoin="round"/>
<path d="M295.5 39.9997C300.747 39.9997 305 44.3425 305 49.6997C305 52.8589 303.521 55.6648 301.231 57.4359L301.844 59.4055C302.244 60.6929 301.282 61.9997 299.934 61.9997H291.334C289.997 61.9997 289.037 60.7137 289.416 59.432L289.964 57.5824C287.564 55.8219 286 52.9474 286 49.6997C286 44.3425 290.254 39.9997 295.5 39.9997Z" fill="#9FB4FF"/>
<path d="M272.591 29.0443V25.2611C272.591 24.5646 273.156 24 273.852 24H277.635" stroke="#4F4DFF" stroke-width="1.33333" stroke-linecap="round" stroke-linejoin="round"/>
<path d="M272.591 82.9557V86.7389C272.591 87.4354 273.156 88 273.852 88H277.635" stroke="#4F4DFF" stroke-width="1.33333" stroke-linecap="round" stroke-linejoin="round"/>
</svg>
