<svg width="400" height="112" viewBox="0 0 400 112" fill="none" xmlns="http://www.w3.org/2000/svg">
<path d="M395 0V0.5H396C396.234 0.5 396.463 0.522754 396.684 0.566406L396.779 0.0761719C397.304 0.179865 397.792 0.386446 398.222 0.673828L397.944 1.08887C398.326 1.34454 398.655 1.67377 398.911 2.05566L399.325 1.77734C399.613 2.20671 399.819 2.69463 399.923 3.21973H399.924L399.434 3.31641C399.477 3.53708 399.5 3.76563 399.5 4V5H400V7H399.5V9H400V11H399.5V13H400V15H399.5V17H400V19H399.5V21H400V23H399.5V25H400V27H399.5V29H400V31H399.5V33H400V35H399.5V37H400V39H399.5V41H400V43H399.5V45H400V47H399.5V49H400V51H399.5V53H400V55H399.5V57H400V59H399.5V61H400V63H399.5V65H400V67H399.5V69H400V71H399.5V73H400V75H399.5V77H400V79H399.5V81H400V83H399.5V85H400V87H399.5V89H400V91H399.5V93H400V95H399.5V97H400V99H399.5V101H400V103H399.5V105H400V107H399.5V108C399.5 108.234 399.477 108.463 399.434 108.684L399.923 108.779C399.819 109.304 399.613 109.792 399.325 110.222L398.911 109.944C398.655 110.326 398.326 110.655 397.944 110.911L398.222 111.325C397.792 111.613 397.304 111.819 396.779 111.923L396.684 111.434C396.463 111.477 396.234 111.5 396 111.5H395V112H393V111.5H391V112H389V111.5H387V112H385V111.5H383V112H381V111.5H379V112H377V111.5H375V112H373V111.5H371V112H369V111.5H367V112H365V111.5H363V112H361V111.5H359V112H357V111.5H355V112H353V111.5H351V112H349V111.5H347V112H345V111.5H343V112H341V111.5H339V112H337V111.5H335V112H333V111.5H331V112H329V111.5H327V112H325V111.5H323V112H321V111.5H319V112H317V111.5H315V112H313V111.5H311V112H309V111.5H307V112H305V111.5H303V112H301V111.5H299V112H297V111.5H295V112H293V111.5H291V112H289V111.5H287V112H285V111.5H283V112H281V111.5H279V112H277V111.5H275V112H273V111.5H271V112H269V111.5H267V112H265V111.5H263V112H261V111.5H259V112H257V111.5H255V112H253V111.5H251V112H249V111.5H247V112H245V111.5H243V112H241V111.5H239V112H237V111.5H235V112H233V111.5H231V112H229V111.5H227V112H225V111.5H223V112H221V111.5H219V112H217V111.5H215V112H213V111.5H211V112H209V111.5H207V112H205V111.5H203V112H201V111.5H199V112H197V111.5H195V112H193V111.5H191V112H189V111.5H187V112H185V111.5H183V112H181V111.5H179V112H177V111.5H175V112H173V111.5H171V112H169V111.5H167V112H165V111.5H163V112H161V111.5H159V112H157V111.5H155V112H153V111.5H151V112H149V111.5H147V112H145V111.5H143V112H141V111.5H139V112H137V111.5H135V112H133V111.5H131V112H129V111.5H127V112H125V111.5H123V112H121V111.5H119V112H117V111.5H115V112H113V111.5H111V112H109V111.5H107V112H105V111.5H103V112H101V111.5H99V112H97V111.5H95V112H93V111.5H91V112H89V111.5H87V112H85V111.5H83V112H81V111.5H79V112H77V111.5H75V112H73V111.5H71V112H69V111.5H67V112H65V111.5H63V112H61V111.5H59V112H57V111.5H55V112H53V111.5H51V112H49V111.5H47V112H45V111.5H43V112H41V111.5H39V112H37V111.5H35V112H33V111.5H31V112H29V111.5H27V112H25V111.5H23V112H21V111.5H19V112H17V111.5H15V112H13V111.5H11V112H9V111.5H7V112H5V111.5H4C3.76563 111.5 3.53708 111.477 3.31641 111.434L3.21973 111.923C2.69463 111.819 2.20671 111.613 1.77734 111.325L2.05566 110.911C1.67377 110.655 1.34454 110.326 1.08887 109.944L0.673828 110.222C0.386447 109.792 0.179865 109.304 0.0761719 108.779L0.566406 108.684C0.522754 108.463 0.5 108.234 0.5 108V107H0V105H0.5V103H0V101H0.5V99H0V97H0.5V95H0V93H0.5V91H0V89H0.5V87H0V85H0.5V83H0V81H0.5V79H0V77H0.5V75H0V73H0.5V71H0V69H0.5V67H0V65H0.5V63H0V61H0.5V59H0V57H0.5V55H0V53H0.5V51H0V49H0.5V47H0V45H0.5V43H0V41H0.5V39H0V37H0.5V35H0V33H0.5V31H0V29H0.5V27H0V25H0.5V23H0V21H0.5V19H0V17H0.5V15H0V13H0.5V11H0V9H0.5V7H0V5H0.5V4C0.5 3.76563 0.522754 3.53708 0.566406 3.31641L0.0761719 3.21973C0.17998 2.69474 0.386383 2.20665 0.673828 1.77734L1.08887 2.05566C1.34454 1.67377 1.67377 1.34454 2.05566 1.08887L1.77734 0.673828C2.20665 0.386383 2.69474 0.17998 3.21973 0.0761719L3.31641 0.566406C3.53708 0.522754 3.76563 0.5 4 0.5H5V0H7V0.5H9V0H11V0.5H13V0H15V0.5H17V0H19V0.5H21V0H23V0.5H25V0H27V0.5H29V0H31V0.5H33V0H35V0.5H37V0H39V0.5H41V0H43V0.5H45V0H47V0.5H49V0H51V0.5H53V0H55V0.5H57V0H59V0.5H61V0H63V0.5H65V0H67V0.5H69V0H71V0.5H73V0H75V0.5H77V0H79V0.5H81V0H83V0.5H85V0H87V0.5H89V0H91V0.5H93V0H95V0.5H97V0H99V0.5H101V0H103V0.5H105V0H107V0.5H109V0H111V0.5H113V0H115V0.5H117V0H119V0.5H121V0H123V0.5H125V0H127V0.5H129V0H131V0.5H133V0H135V0.5H137V0H139V0.5H141V0H143V0.5H145V0H147V0.5H149V0H151V0.5H153V0H155V0.5H157V0H159V0.5H161V0H163V0.5H165V0H167V0.5H169V0H171V0.5H173V0H175V0.5H177V0H179V0.5H181V0H183V0.5H185V0H187V0.5H189V0H191V0.5H193V0H195V0.5H197V0H199V0.5H201V0H203V0.5H205V0H207V0.5H209V0H211V0.5H213V0H215V0.5H217V0H219V0.5H221V0H223V0.5H225V0H227V0.5H229V0H231V0.5H233V0H235V0.5H237V0H239V0.5H241V0H243V0.5H245V0H247V0.5H249V0H251V0.5H253V0H255V0.5H257V0H259V0.5H261V0H263V0.5H265V0H267V0.5H269V0H271V0.5H273V0H275V0.5H277V0H279V0.5H281V0H283V0.5H285V0H287V0.5H289V0H291V0.5H293V0H295V0.5H297V0H299V0.5H301V0H303V0.5H305V0H307V0.5H309V0H311V0.5H313V0H315V0.5H317V0H319V0.5H321V0H323V0.5H325V0H327V0.5H329V0H331V0.5H333V0H335V0.5H337V0H339V0.5H341V0H343V0.5H345V0H347V0.5H349V0H351V0.5H353V0H355V0.5H357V0H359V0.5H361V0H363V0.5H365V0H367V0.5H369V0H371V0.5H373V0H375V0.5H377V0H379V0.5H381V0H383V0.5H385V0H387V0.5H389V0H391V0.5H393V0H395Z" fill="#F5F8FF"/>
<path d="M395 0V0.5H396C396.234 0.5 396.463 0.522754 396.684 0.566406L396.779 0.0761719C397.304 0.179865 397.792 0.386446 398.222 0.673828L397.944 1.08887C398.326 1.34454 398.655 1.67377 398.911 2.05566L399.325 1.77734C399.613 2.20671 399.819 2.69463 399.923 3.21973H399.924L399.434 3.31641C399.477 3.53708 399.5 3.76563 399.5 4V5H400V7H399.5V9H400V11H399.5V13H400V15H399.5V17H400V19H399.5V21H400V23H399.5V25H400V27H399.5V29H400V31H399.5V33H400V35H399.5V37H400V39H399.5V41H400V43H399.5V45H400V47H399.5V49H400V51H399.5V53H400V55H399.5V57H400V59H399.5V61H400V63H399.5V65H400V67H399.5V69H400V71H399.5V73H400V75H399.5V77H400V79H399.5V81H400V83H399.5V85H400V87H399.5V89H400V91H399.5V93H400V95H399.5V97H400V99H399.5V101H400V103H399.5V105H400V107H399.5V108C399.5 108.234 399.477 108.463 399.434 108.684L399.923 108.779C399.819 109.304 399.613 109.792 399.325 110.222L398.911 109.944C398.655 110.326 398.326 110.655 397.944 110.911L398.222 111.325C397.792 111.613 397.304 111.819 396.779 111.923L396.684 111.434C396.463 111.477 396.234 111.5 396 111.5H395V112H393V111.5H391V112H389V111.5H387V112H385V111.5H383V112H381V111.5H379V112H377V111.5H375V112H373V111.5H371V112H369V111.5H367V112H365V111.5H363V112H361V111.5H359V112H357V111.5H355V112H353V111.5H351V112H349V111.5H347V112H345V111.5H343V112H341V111.5H339V112H337V111.5H335V112H333V111.5H331V112H329V111.5H327V112H325V111.5H323V112H321V111.5H319V112H317V111.5H315V112H313V111.5H311V112H309V111.5H307V112H305V111.5H303V112H301V111.5H299V112H297V111.5H295V112H293V111.5H291V112H289V111.5H287V112H285V111.5H283V112H281V111.5H279V112H277V111.5H275V112H273V111.5H271V112H269V111.5H267V112H265V111.5H263V112H261V111.5H259V112H257V111.5H255V112H253V111.5H251V112H249V111.5H247V112H245V111.5H243V112H241V111.5H239V112H237V111.5H235V112H233V111.5H231V112H229V111.5H227V112H225V111.5H223V112H221V111.5H219V112H217V111.5H215V112H213V111.5H211V112H209V111.5H207V112H205V111.5H203V112H201V111.5H199V112H197V111.5H195V112H193V111.5H191V112H189V111.5H187V112H185V111.5H183V112H181V111.5H179V112H177V111.5H175V112H173V111.5H171V112H169V111.5H167V112H165V111.5H163V112H161V111.5H159V112H157V111.5H155V112H153V111.5H151V112H149V111.5H147V112H145V111.5H143V112H141V111.5H139V112H137V111.5H135V112H133V111.5H131V112H129V111.5H127V112H125V111.5H123V112H121V111.5H119V112H117V111.5H115V112H113V111.5H111V112H109V111.5H107V112H105V111.5H103V112H101V111.5H99V112H97V111.5H95V112H93V111.5H91V112H89V111.5H87V112H85V111.5H83V112H81V111.5H79V112H77V111.5H75V112H73V111.5H71V112H69V111.5H67V112H65V111.5H63V112H61V111.5H59V112H57V111.5H55V112H53V111.5H51V112H49V111.5H47V112H45V111.5H43V112H41V111.5H39V112H37V111.5H35V112H33V111.5H31V112H29V111.5H27V112H25V111.5H23V112H21V111.5H19V112H17V111.5H15V112H13V111.5H11V112H9V111.5H7V112H5V111.5H4C3.76563 111.5 3.53708 111.477 3.31641 111.434L3.21973 111.923C2.69463 111.819 2.20671 111.613 1.77734 111.325L2.05566 110.911C1.67377 110.655 1.34454 110.326 1.08887 109.944L0.673828 110.222C0.386447 109.792 0.179865 109.304 0.0761719 108.779L0.566406 108.684C0.522754 108.463 0.5 108.234 0.5 108V107H0V105H0.5V103H0V101H0.5V99H0V97H0.5V95H0V93H0.5V91H0V89H0.5V87H0V85H0.5V83H0V81H0.5V79H0V77H0.5V75H0V73H0.5V71H0V69H0.5V67H0V65H0.5V63H0V61H0.5V59H0V57H0.5V55H0V53H0.5V51H0V49H0.5V47H0V45H0.5V43H0V41H0.5V39H0V37H0.5V35H0V33H0.5V31H0V29H0.5V27H0V25H0.5V23H0V21H0.5V19H0V17H0.5V15H0V13H0.5V11H0V9H0.5V7H0V5H0.5V4C0.5 3.76563 0.522754 3.53708 0.566406 3.31641L0.0761719 3.21973C0.17998 2.69474 0.386383 2.20665 0.673828 1.77734L1.08887 2.05566C1.34454 1.67377 1.67377 1.34454 2.05566 1.08887L1.77734 0.673828C2.20665 0.386383 2.69474 0.17998 3.21973 0.0761719L3.31641 0.566406C3.53708 0.522754 3.76563 0.5 4 0.5H5V0H7V0.5H9V0H11V0.5H13V0H15V0.5H17V0H19V0.5H21V0H23V0.5H25V0H27V0.5H29V0H31V0.5H33V0H35V0.5H37V0H39V0.5H41V0H43V0.5H45V0H47V0.5H49V0H51V0.5H53V0H55V0.5H57V0H59V0.5H61V0H63V0.5H65V0H67V0.5H69V0H71V0.5H73V0H75V0.5H77V0H79V0.5H81V0H83V0.5H85V0H87V0.5H89V0H91V0.5H93V0H95V0.5H97V0H99V0.5H101V0H103V0.5H105V0H107V0.5H109V0H111V0.5H113V0H115V0.5H117V0H119V0.5H121V0H123V0.5H125V0H127V0.5H129V0H131V0.5H133V0H135V0.5H137V0H139V0.5H141V0H143V0.5H145V0H147V0.5H149V0H151V0.5H153V0H155V0.5H157V0H159V0.5H161V0H163V0.5H165V0H167V0.5H169V0H171V0.5H173V0H175V0.5H177V0H179V0.5H181V0H183V0.5H185V0H187V0.5H189V0H191V0.5H193V0H195V0.5H197V0H199V0.5H201V0H203V0.5H205V0H207V0.5H209V0H211V0.5H213V0H215V0.5H217V0H219V0.5H221V0H223V0.5H225V0H227V0.5H229V0H231V0.5H233V0H235V0.5H237V0H239V0.5H241V0H243V0.5H245V0H247V0.5H249V0H251V0.5H253V0H255V0.5H257V0H259V0.5H261V0H263V0.5H265V0H267V0.5H269V0H271V0.5H273V0H275V0.5H277V0H279V0.5H281V0H283V0.5H285V0H287V0.5H289V0H291V0.5H293V0H295V0.5H297V0H299V0.5H301V0H303V0.5H305V0H307V0.5H309V0H311V0.5H313V0H315V0.5H317V0H319V0.5H321V0H323V0.5H325V0H327V0.5H329V0H331V0.5H333V0H335V0.5H337V0H339V0.5H341V0H343V0.5H345V0H347V0.5H349V0H351V0.5H353V0H355V0.5H357V0H359V0.5H361V0H363V0.5H365V0H367V0.5H369V0H371V0.5H373V0H375V0.5H377V0H379V0.5H381V0H383V0.5H385V0H387V0.5H389V0H391V0.5H393V0H395Z" stroke="#C3D2FF" stroke-dasharray="2 2"/>
<path d="M37 50H27C26.7348 50 26.4804 50.1054 26.2929 50.2929C26.1054 50.4804 26 50.7348 26 51V61C26 61.2652 26.1054 61.5196 26.2929 61.7071C26.4804 61.8946 26.7348 62 27 62H37C37.2652 62 37.5196 61.8946 37.7071 61.7071C37.8946 61.5196 38 61.2652 38 61V51C38 50.7348 37.8946 50.4804 37.7071 50.2929C37.5196 50.1054 37.2652 50 37 50ZM37 61H27V51H37V61ZM35 56C35 56.1326 34.9473 56.2598 34.8536 56.3536C34.7598 56.4473 34.6326 56.5 34.5 56.5H32.5V58.5C32.5 58.6326 32.4473 58.7598 32.3536 58.8536C32.2598 58.9473 32.1326 59 32 59C31.8674 59 31.7402 58.9473 31.6464 58.8536C31.5527 58.7598 31.5 58.6326 31.5 58.5V56.5H29.5C29.3674 56.5 29.2402 56.4473 29.1464 56.3536C29.0527 56.2598 29 56.1326 29 56C29 55.8674 29.0527 55.7402 29.1464 55.6464C29.2402 55.5527 29.3674 55.5 29.5 55.5H31.5V53.5C31.5 53.3674 31.5527 53.2402 31.6464 53.1464C31.7402 53.0527 31.8674 53 32 53C32.1326 53 32.2598 53.0527 32.3536 53.1464C32.4473 53.2402 32.5 53.3674 32.5 53.5V55.5H34.5C34.6326 55.5 34.7598 55.5527 34.8536 55.6464C34.9473 55.7402 35 55.8674 35 56Z" fill="#4F4DFF"/>
<path d="M53.824 49.562H54.86V53.888H60.054V54.868H54.86V60.86H61.244V61.84H48.784V60.86H53.824V49.562ZM64.338 54.588C63.876 55.204 63.372 55.806 62.826 56.366L62.504 55.288C63.988 53.622 65.08 51.704 65.766 49.548L66.718 49.996C66.354 51.074 65.906 52.096 65.346 53.062V62.428H64.338V54.588ZM66.9 51.354H69.63L70.05 49.548L71.03 49.646C70.89 50.234 70.764 50.808 70.638 51.354H74.866V52.334H70.386C70.232 52.894 70.078 53.44 69.91 53.958H75.44V54.924H69.588C69.364 55.568 69.126 56.156 68.902 56.702H74.656V57.57C74.068 58.55 73.13 59.53 71.842 60.51C72.5 60.86 73.13 61.238 73.746 61.644L73.172 62.512C71.464 61.336 69.7 60.412 67.908 59.74L68.44 58.956C69.308 59.292 70.148 59.656 70.96 60.048C72.066 59.278 72.934 58.48 73.578 57.64H67.586C67.95 56.772 68.3 55.862 68.622 54.924H66.284V53.958H68.93C69.098 53.412 69.252 52.866 69.392 52.334H66.9V51.354ZM79.542 54.672H86.514V57.514H79.542V54.672ZM85.576 56.744V55.456H80.48V56.744H85.576ZM87.844 58.466V62.414H86.878V61.84H79.276V62.414H78.296V58.466H87.844ZM79.276 60.986H86.878V59.306H79.276V60.986ZM76.98 50.528H80.13V49.59H81.138V50.528H84.862V49.59H85.87V50.528H89.02V51.41H85.87V52.236H84.862V51.41H81.138V52.236H80.13V51.41H76.98V50.528ZM88.628 52.824V55.442H87.662V53.678H78.338V55.512H77.372V52.824H88.628ZM94.97 49.702H95.992V60.832H97.98V49.702H99.002V60.832H103.202V61.812H90.798V60.832H94.97V49.702ZM101.928 52.25L102.824 52.502C102.264 54.938 101.564 57.066 100.71 58.9L99.8 58.578C100.612 56.926 101.326 54.812 101.928 52.25ZM92.002 52.222C92.73 54.112 93.388 56.282 93.962 58.732L93.038 58.97C92.534 56.73 91.904 54.574 91.148 52.502L92.002 52.222ZM116.124 62.316C115.508 62.302 115.046 61.91 114.752 61.154C114.444 60.384 114.304 58.816 114.304 56.45V52.922H112.33V54.462C112.316 55.246 112.26 55.974 112.162 56.66C112.82 57.136 113.45 57.64 114.038 58.186L113.464 59.054C112.96 58.564 112.456 58.13 111.966 57.752C111.49 59.74 110.608 61.28 109.292 62.4L108.536 61.742C109.838 60.65 110.678 59.096 111.07 57.08C110.482 56.66 109.894 56.31 109.306 56.002L109.852 55.19C110.328 55.442 110.776 55.722 111.224 56.002C111.266 55.498 111.294 54.994 111.308 54.462V52.922H109.516V51.942H111.308V49.59H112.33V51.942H115.298V56.45C115.298 58.452 115.354 59.726 115.494 60.272C115.606 60.832 115.774 61.112 116.026 61.112C116.166 61.112 116.306 60.846 116.418 60.328C116.502 59.88 116.586 59.32 116.67 58.662L117.524 59.068C117.328 60.356 117.118 61.238 116.88 61.686C116.656 62.106 116.404 62.316 116.124 62.316ZM106.282 62.274H104.938L104.728 61.294C105.148 61.322 105.54 61.35 105.932 61.35C106.324 61.35 106.534 61.154 106.534 60.776V57.346C105.946 57.556 105.358 57.752 104.742 57.934L104.49 56.982C105.19 56.814 105.876 56.618 106.534 56.38V53.216H104.756V52.25H106.534V49.604H107.556V52.25H108.872V53.216H107.556V55.988C108.032 55.792 108.494 55.568 108.956 55.33V56.338C108.494 56.562 108.032 56.758 107.556 56.954V61.028C107.556 61.854 107.122 62.274 106.282 62.274ZM119.372 50.122H123.39V58.494H119.372V50.122ZM122.424 57.598V54.742H120.352V57.598H122.424ZM120.352 53.832H122.424V51.032H120.352V53.832ZM124.51 54.826H130.39V58.494H124.51V54.826ZM129.41 57.612V55.722H125.504V57.612H129.41ZM126.246 51.06H124.244V50.122H130.684C130.656 51.732 130.544 52.768 130.362 53.23C130.152 53.86 129.648 54.182 128.85 54.21C128.542 54.21 128.192 54.196 127.8 54.168L127.52 53.286C127.996 53.314 128.402 53.342 128.738 53.342C129.158 53.328 129.424 53.104 129.508 52.67C129.592 52.404 129.634 51.872 129.662 51.06H127.212C127.016 52.586 126.064 53.706 124.328 54.406L123.796 53.566C125.252 53.034 126.064 52.208 126.246 51.06ZM120.128 59.138L121.024 59.376C120.716 60.552 120.338 61.574 119.876 62.47L118.952 62.148C119.4 61.35 119.792 60.342 120.128 59.138ZM123.474 59.348C123.726 60.23 123.95 61.182 124.146 62.204L123.18 62.428C122.998 61.336 122.788 60.384 122.55 59.558L123.474 59.348ZM126.456 59.236C126.834 60.132 127.17 61.112 127.45 62.176L126.484 62.4C126.218 61.28 125.896 60.3 125.518 59.446L126.456 59.236ZM129.34 58.998C130.138 60.09 130.754 61.056 131.174 61.868L130.362 62.442C129.914 61.546 129.312 60.552 128.556 59.474L129.34 58.998Z" fill="#4F4DFF"/>
<path d="M275.113 27.7833C275.113 27.0868 275.678 26.5222 276.374 26.5222H374.739C375.435 26.5222 376 27.0868 376 27.7833V84.2168C376 84.9133 375.435 85.4779 374.739 85.4779H276.374C275.678 85.4779 275.113 84.9133 275.113 84.2168V27.7833Z" fill="#DEE7FF" fill-opacity="0.6"/>
<rect x="286.992" y="69.8843" width="6.62069" height="3.46798" rx="0.945813" fill="#9FB4FF"/>
<rect x="332.056" y="69.8843" width="6.62069" height="3.46798" rx="0.945813" fill="#9FB4FF"/>
<rect x="286.992" y="62.8843" width="6.62069" height="3.46798" rx="0.945813" fill="#9FB4FF"/>
<rect x="332.056" y="62.8843" width="6.62069" height="3.46798" rx="0.945813" fill="#9FB4FF"/>
<rect x="286.992" y="55.8843" width="6.62069" height="3.46798" rx="0.945813" fill="#9FB4FF"/>
<rect x="332.056" y="55.8843" width="6.62069" height="3.46798" rx="0.945813" fill="#9FB4FF"/>
<rect x="297.396" y="62.8843" width="27.6033" height="3.46798" rx="0.945813" fill="#9FB4FF"/>
<rect x="342.459" y="62.8843" width="21.5486" height="3.46798" rx="0.945813" fill="#9FB4FF"/>
<rect x="297.396" y="55.8843" width="27.6033" height="3.46798" rx="0.945813" fill="#9FB4FF"/>
<rect x="342.459" y="55.8843" width="21.5486" height="3.46798" rx="0.945813" fill="#9FB4FF"/>
<rect x="297.396" y="69.8843" width="15.7517" height="3.46798" rx="0.945813" fill="#9FB4FF"/>
<rect x="342.459" y="69.8843" width="15.7517" height="3.46798" rx="0.945813" fill="#9FB4FF"/>
<path d="M378.522 29.0446V25.2613C378.522 24.5648 377.957 24.0002 377.261 24.0002H373.477" stroke="#4F4DFF" stroke-width="1.33333" stroke-linecap="round" stroke-linejoin="round"/>
<path d="M378.522 82.9559V86.7392C378.522 87.4356 377.957 88.0002 377.261 88.0002H373.477" stroke="#4F4DFF" stroke-width="1.33333" stroke-linecap="round" stroke-linejoin="round"/>
<path d="M325.5 33.3079C329.09 33.3079 332 36.2689 332 39.9215C332 42.0755 330.988 43.9886 329.421 45.1962L329.582 45.7118C329.984 46.9996 329.022 48.3079 327.673 48.3079H323.498C322.16 48.3079 321.2 47.0204 321.581 45.7383L321.712 45.2961C320.07 44.0957 319 42.1358 319 39.9215C319 36.2689 321.91 33.3079 325.5 33.3079Z" fill="#9FB4FF"/>
<path d="M272.591 29.0443V25.2611C272.591 24.5646 273.156 24 273.852 24H277.635" stroke="#4F4DFF" stroke-width="1.33333" stroke-linecap="round" stroke-linejoin="round"/>
<path d="M272.591 82.9557V86.7389C272.591 87.4354 273.156 88 273.852 88H277.635" stroke="#4F4DFF" stroke-width="1.33333" stroke-linecap="round" stroke-linejoin="round"/>
</svg>
