<svg width="16" height="17" viewBox="0 0 16 17" fill="none" xmlns="http://www.w3.org/2000/svg">
<path d="M13.8981 9.98065L10.9538 8.66128L10.9456 8.65752C10.7928 8.59215 10.626 8.56591 10.4605 8.58119C10.2949 8.59647 10.1358 8.65278 9.99751 8.74503C9.98122 8.75578 9.96557 8.76747 9.95063 8.78003L8.42938 10.0769C7.46563 9.60877 6.47063 8.62127 6.00251 7.67002L7.30126 6.12565C7.31376 6.11002 7.32563 6.0944 7.33688 6.07753C7.42715 5.93959 7.48192 5.78148 7.49631 5.61726C7.5107 5.45304 7.48428 5.28781 7.41938 5.13627V5.12877L6.09626 2.1794C6.01047 1.98144 5.86296 1.81653 5.67575 1.7093C5.48854 1.60206 5.27166 1.55825 5.05751 1.5844C4.21061 1.69584 3.43324 2.11176 2.87059 2.75446C2.30794 3.39716 1.99847 4.22271 2.00001 5.0769C2.00001 10.0394 6.03751 14.0769 11 14.0769C11.8542 14.0784 12.6797 13.769 13.3224 13.2063C13.9651 12.6437 14.3811 11.8663 14.4925 11.0194C14.5187 10.8053 14.475 10.5885 14.3679 10.4013C14.2607 10.2141 14.096 10.0665 13.8981 9.98065ZM11 13.0769C8.87898 13.0746 6.8455 12.231 5.34571 10.7312C3.84592 9.23141 3.00232 7.19792 3.00001 5.0769C2.99765 4.46658 3.21754 3.87627 3.61859 3.41622C4.01964 2.95616 4.57444 2.65782 5.17938 2.5769C5.17913 2.57939 5.17913 2.58191 5.17938 2.5844L6.49188 5.5219L5.20001 7.06815C5.18689 7.08324 5.17498 7.09933 5.16438 7.11627C5.07033 7.2606 5.01515 7.42677 5.0042 7.59869C4.99325 7.7706 5.0269 7.94243 5.10188 8.09753C5.66813 9.25565 6.83501 10.4138 8.00563 10.9794C8.16186 11.0537 8.33468 11.0862 8.50722 11.0737C8.67976 11.0612 8.8461 11.0042 8.99001 10.9081C9.00605 10.8973 9.02149 10.8857 9.03626 10.8731L10.5556 9.5769L13.4931 10.8925C13.4931 10.8925 13.4981 10.8925 13.5 10.8925C13.4201 11.4983 13.1222 12.0542 12.662 12.4563C12.2019 12.8583 11.611 13.079 11 13.0769Z" fill="#27272A"/>
</svg>
