<svg width="24" height="24" viewBox="0 0 24 24" fill="none" xmlns="http://www.w3.org/2000/svg">
<g id="icon24/&#232;&#183;&#179;&#232;&#189;&#172;">
<path id="Vector" d="M20.9062 21.7523H3.14062C2.67422 21.7523 2.29688 21.375 2.29688 20.9086V3.14294C2.29688 2.67654 2.67422 2.29919 3.14062 2.29919H10.5023C10.9688 2.29919 11.3461 2.67654 11.3461 3.14294C11.3461 3.60935 10.9688 3.98669 10.5023 3.98669H3.98438V20.0648H20.0625V13.5843C20.0625 13.1179 20.4398 12.7406 20.9062 12.7406C21.3727 12.7406 21.75 13.1179 21.75 13.5843V20.9086C21.75 21.375 21.3727 21.7523 20.9062 21.7523Z" fill="#344054"/>
<path id="Vector_2" d="M21.748 3.08438V3.07266C21.7457 3.03281 21.7387 2.99531 21.7316 2.95781C21.7316 2.95547 21.7316 2.95313 21.7293 2.95078C21.7199 2.91094 21.7082 2.87344 21.6941 2.83594V2.83359C21.6801 2.79609 21.6613 2.76094 21.6426 2.72578C21.6426 2.72344 21.6402 2.72344 21.6402 2.72109C21.6215 2.68828 21.6004 2.65547 21.577 2.625C21.5746 2.62266 21.5723 2.61797 21.5699 2.61562C21.5582 2.60156 21.5488 2.58984 21.5371 2.57578C21.5371 2.57344 21.5348 2.57344 21.5348 2.57109C21.523 2.55703 21.5113 2.54531 21.4973 2.53359L21.4879 2.52422C21.4762 2.5125 21.4621 2.50078 21.4504 2.48906L21.448 2.48672C21.434 2.475 21.4199 2.46328 21.4035 2.45391C21.4012 2.45156 21.3965 2.44922 21.3941 2.44688C21.3613 2.42344 21.3285 2.40469 21.2934 2.38594L21.291 2.38359C21.2535 2.36484 21.216 2.34844 21.1762 2.33672C21.1387 2.325 21.0988 2.31328 21.059 2.30859C21.0566 2.30859 21.0543 2.30859 21.052 2.30625L20.9957 2.29922H20.9887C20.9723 2.29687 20.9582 2.29688 20.9418 2.29688H15.0027C14.5363 2.29688 14.159 2.67422 14.159 3.14062C14.159 3.60703 14.5363 3.98438 15.0027 3.98438H18.8699L11.4285 11.4281C11.098 11.7586 11.098 12.293 11.4285 12.6211C11.5926 12.7852 11.8082 12.8672 12.0262 12.8672C12.2418 12.8672 12.4574 12.7852 12.6238 12.6211L20.0629 5.17969V8.99531C20.0629 9.46172 20.4402 9.83906 20.9066 9.83906C21.373 9.83906 21.7504 9.46172 21.7504 8.99531V3.14297C21.7504 3.12422 21.7504 3.10313 21.748 3.08438Z" fill="#344054"/>
</g>
</svg>
